<svg xmlns="http://www.w3.org/2000/svg" width="1162.9566" height="1162.9587" viewBox="0 0 1162.9566 1162.9587"><path d="M581.48,1162.9587C260.85,1162.9587,0,902.1085,0,581.48,0,260.85,260.85,0,581.48,0c320.626,0,581.4762,260.85,581.4762,581.48C1162.9566,902.1085,902.1064,1162.9587,581.48,1162.9587Zm0-1141.0619c-308.557,0-559.5836,251.0287-559.5836,559.5836S272.9234,1141.0619,581.48,1141.0619c308.5528,0,559.5793-251.0266,559.5793-559.5815S890.0332,21.8968,581.48,21.8968Z" fill="#fff"/><path d="M834.8659,157.4512l-41.7,496.2409-16.7294-18.3362L423.0394,248.937,404.3477,471.2106l-16.9343-18.4385,24.8511-295.3209h30.036l342.82,374.13,31.3131-374.13Z" fill="#fff"/><path d="M789.9465,687.4108,764.1276,994.3183H745.6957L392.2984,607.8994l-32.34,386.4189H341.5262l40.0049-477.9047,2.71-29.7719L754.38,890.5433,773.0177,669.1Z" fill="#fff"/></svg>